%FSLAX24Y24*%
%MOIN*%
G70*
G01*
G75*
G04 Layer_Physical_Order=2*
G04 Layer_Color=16711680*
G04:AMPARAMS|DCode=10|XSize=15.7mil|YSize=43.3mil|CornerRadius=0mil|HoleSize=0mil|Usage=FLASHONLY|Rotation=315.000|XOffset=0mil|YOffset=0mil|HoleType=Round|Shape=Rectangle|*
%AMROTATEDRECTD10*
4,1,4,-0.0209,-0.0097,0.0097,0.0209,0.0209,0.0097,-0.0097,-0.0209,-0.0209,-0.0097,0.0*
%
%ADD10ROTATEDRECTD10*%

G04:AMPARAMS|DCode=11|XSize=102mil|YSize=59mil|CornerRadius=0mil|HoleSize=0mil|Usage=FLASHONLY|Rotation=315.000|XOffset=0mil|YOffset=0mil|HoleType=Round|Shape=Rectangle|*
%AMROTATEDRECTD11*
4,1,4,-0.0569,0.0152,-0.0152,0.0569,0.0569,-0.0152,0.0152,-0.0569,-0.0569,0.0152,0.0*
%
%ADD11ROTATEDRECTD11*%

%ADD12R,0.1020X0.0590*%
G04:AMPARAMS|DCode=13|XSize=102mil|YSize=59mil|CornerRadius=0mil|HoleSize=0mil|Usage=FLASHONLY|Rotation=45.000|XOffset=0mil|YOffset=0mil|HoleType=Round|Shape=Rectangle|*
%AMROTATEDRECTD13*
4,1,4,-0.0152,-0.0569,-0.0569,-0.0152,0.0152,0.0569,0.0569,0.0152,-0.0152,-0.0569,0.0*
%
%ADD13ROTATEDRECTD13*%

%ADD14R,0.0590X0.1020*%
%ADD15R,0.0270X0.0350*%
G04:AMPARAMS|DCode=16|XSize=27mil|YSize=35mil|CornerRadius=0mil|HoleSize=0mil|Usage=FLASHONLY|Rotation=45.000|XOffset=0mil|YOffset=0mil|HoleType=Round|Shape=Rectangle|*
%AMROTATEDRECTD16*
4,1,4,0.0028,-0.0219,-0.0219,0.0028,-0.0028,0.0219,0.0219,-0.0028,0.0028,-0.0219,0.0*
%
%ADD16ROTATEDRECTD16*%

%ADD17R,0.0350X0.0270*%
G04:AMPARAMS|DCode=18|XSize=27mil|YSize=35mil|CornerRadius=0mil|HoleSize=0mil|Usage=FLASHONLY|Rotation=135.000|XOffset=0mil|YOffset=0mil|HoleType=Round|Shape=Rectangle|*
%AMROTATEDRECTD18*
4,1,4,0.0219,0.0028,-0.0028,-0.0219,-0.0219,-0.0028,0.0028,0.0219,0.0219,0.0028,0.0*
%
%ADD18ROTATEDRECTD18*%

%ADD19C,0.0197*%
%ADD20C,0.0070*%
%ADD21C,0.0100*%
%ADD22C,0.0700*%
%ADD23C,0.0300*%
%ADD24R,0.0315X0.0433*%
%ADD25R,0.0800X0.0550*%
%ADD26C,0.7000*%
%ADD27R,0.1098X0.2000*%
%ADD28R,0.0248X0.0787*%
D17*
X6730Y8690D02*
D03*
X6730Y9270D02*
D03*
D20*
X1950Y9500D02*
Y9790D01*
X1780Y8820D02*
Y9330D01*
X1410Y8900D02*
Y9780D01*
X940Y9170D02*
Y9790D01*
X2930Y7570D02*
Y8200D01*
X3430Y7960D02*
Y8200D01*
X3070Y7600D02*
X3430Y7960D01*
X3070Y7502D02*
Y7600D01*
X3065Y7497D02*
X3070Y7502D01*
X3065Y7464D02*
Y7497D01*
X2916Y7315D02*
X3065Y7464D01*
X2485Y7315D02*
X2916D01*
X2480Y7310D02*
X2485Y7315D01*
X2170Y9200D02*
X2659Y8711D01*
Y7795D02*
Y8711D01*
X2598Y7734D02*
X2659Y7795D01*
X2452Y7734D02*
X2598D01*
X2092Y7322D02*
Y7374D01*
X2452Y7734D01*
X2170Y9200D02*
Y10210D01*
X2430Y9190D02*
X2580Y9040D01*
X2430Y9190D02*
Y9800D01*
X2140Y7620D02*
X2430Y7910D01*
X1950Y7930D02*
Y8190D01*
X920Y6900D02*
X1950Y7930D01*
X2170Y10210D02*
X2226Y10266D01*
X2704D01*
X2930Y10040D01*
Y9768D02*
Y10040D01*
X1290Y6730D02*
Y6900D01*
X2430Y7910D02*
Y8200D01*
X2010Y7620D02*
X2140D01*
X1780Y9330D02*
X1950Y9500D01*
X1660Y6820D02*
X3000D01*
X6220Y6920D02*
Y8480D01*
Y5180D02*
Y6920D01*
X5240Y4200D02*
X6220Y5180D01*
X4620Y5296D02*
Y9410D01*
Y5296D02*
X5240Y4676D01*
X4230Y9800D02*
X4620Y9410D01*
X3430Y9800D02*
X4230D01*
X7460Y9805D02*
X7520Y9865D01*
X7460Y8850D02*
Y9805D01*
X7300Y8690D02*
X7460Y8850D01*
X6730Y8690D02*
X7300D01*
X6730Y9270D02*
Y9990D01*
X1290Y6900D02*
X2010Y7620D01*
X2580Y9040D02*
X4030D01*
X9424Y7799D02*
X9720Y8095D01*
X9424Y7244D02*
Y7799D01*
X7520Y9865D02*
X9720D01*
X8550Y7120D02*
Y9855D01*
X430Y9130D02*
Y9800D01*
Y9130D02*
X730Y8830D01*
X1410Y9780D02*
X1430Y9800D01*
X930D02*
X940Y9790D01*
X430Y9800D02*
X510Y9720D01*
D21*
X6220Y6920D02*
X7395Y8095D01*
X5240Y5940D02*
X6220Y6920D01*
X5240Y4676D02*
Y5940D01*
X7395Y8095D02*
X7520D01*
X7685Y7930D02*
X8150D01*
X7945Y5835D02*
X8110Y6000D01*
X6360Y4250D02*
X7945Y5835D01*
X8015D01*
X9424Y7244D01*
X9936D02*
X10020Y7160D01*
Y6850D02*
Y7160D01*
X5240Y4100D02*
Y4200D01*
X9575Y4250D02*
X9950Y3875D01*
Y2790D02*
Y3875D01*
X550Y2770D02*
Y3875D01*
X925Y4250D01*
X8110Y5980D02*
Y6000D01*
X9680Y4355D02*
Y6496D01*
X9575Y4250D02*
X9680Y4355D01*
D22*
X9750Y750D02*
D03*
X750D02*
D03*
D23*
X2092Y7322D02*
D03*
X1668Y6898D02*
D03*
X6220Y8480D02*
D03*
X2350Y5960D02*
D03*
X6720Y10070D02*
D03*
X10020Y6850D02*
D03*
X8550Y7120D02*
D03*
X2480Y7310D02*
D03*
X2810Y7570D02*
D03*
X4060Y7360D02*
D03*
X1750Y8850D02*
D03*
X1380Y8870D02*
D03*
X720Y8840D02*
D03*
X940Y9170D02*
D03*
X4030Y9040D02*
D03*
X9950Y2790D02*
D03*
X550Y2770D02*
D03*
X8150Y7930D02*
D03*
X8500Y4210D02*
D03*
X7160Y1730D02*
D03*
X2100Y3270D02*
D03*
X4110Y1270D02*
D03*
X3670Y4560D02*
D03*
X1290Y6730D02*
D03*
X920Y6900D02*
D03*
D24*
X9680Y6457D02*
D03*
X9424Y7283D02*
D03*
X9936D02*
D03*
D25*
X9720Y9865D02*
D03*
X7520D02*
D03*
X9720Y8095D02*
D03*
X7520D02*
D03*
D26*
X5240Y4200D02*
D03*
D27*
X915D02*
D03*
X9565D02*
D03*
D28*
X3430Y8232D02*
D03*
X2930D02*
D03*
X2430D02*
D03*
X1930D02*
D03*
X1430D02*
D03*
X930D02*
D03*
X430D02*
D03*
X3430Y9768D02*
D03*
X2930D02*
D03*
X2430D02*
D03*
X1930D02*
D03*
X1430D02*
D03*
X930D02*
D03*
X430D02*
D03*
M02*
