M48
;Layer_Color=15461320
;FILE_FORMAT=2:4
INCH,LZ
;TYPE=PLATED
T1F00S00C0.0170
;TYPE=NON_PLATED
T2F00S00C0.0700
%
T01
X00716Y00173
X0085Y00421
X00995Y00279
X01002Y00685
X00855Y00712
X001668Y006898
X00129Y00673
X00092Y0069
X00235Y00596
X00367Y00456
X0021Y00327
X00055Y00277
X00411Y00127
X00406Y00736
X00281Y00757
X00248Y00731
X002092Y007322
X00175Y00885
X00138Y00887
X00072Y00884
X00094Y00917
X00403Y00904
X00622Y00848
X00672Y01007
X00815Y00793
T02
X00975Y00075
X00075
M30
